# xmcd CD database file
#
# Track frame offsets:
#	150
#	28025
#	53485
#	72603
#	95126
#	111246
#	138088
#	161278
#	189146
#	209014
#	229788
#
# Disc length: 3307 seconds
#
# Revision: 0
# Processed by: cddbd v1.5.2PL0 Copyright (c) Steve Scherf et al.
# Submitted via: CDex 1.51
#
DISCID=950ce90b
DTITLE=Claire Michael Quartet - All Jazz
DYEAR=2008
DGENRE=Jazz
TTITLE0=Laeta nu
TTITLE1=El duende
TTITLE2=Somewhere
TTITLE3=I'm cool
TTITLE4=Fast and mad
TTITLE5=Id
TTITLE6=Saudade
TTITLE7=All Jazz
TTITLE8=Ruzgar
TTITLE9=Contre tout
TTITLE10=Egregore
EXTD=YEAR: 2008
EXTT0=
EXTT1=
EXTT2=
EXTT3=
EXTT4=
EXTT5=
EXTT6=
EXTT7=
EXTT8=
EXTT9=
EXTT10=
PLAYORDER=
